<?xml version="1.0" standalone="no"?>
<!DOCTYPE svg PUBLIC "-//W3C//DTD SVG 20010904//EN"
 "http://www.w3.org/TR/2001/REC-SVG-20010904/DTD/svg10.dtd">
<svg version="1.0" xmlns="http://www.w3.org/2000/svg"
 width="10800.000000pt" height="10800.000000pt" viewBox="0 0 10800.000000 10800.000000"
 preserveAspectRatio="xMidYMid meet">
<metadata>
Created by potrace 1.15, written by Peter Selinger 2001-2017
</metadata>
<g transform="translate(0.000000,10800.000000) scale(0.100000,-0.100000)"
fill="#000000" stroke="none">
<path d="M61475 105499 c-446 -56 -930 -273 -1399 -627 -534 -402 -1034 -965
-1348 -1517 -111 -195 -187 -366 -307 -689 -435 -1166 -698 -2607 -770 -4216
-17 -381 -31 -1031 -61 -2900 -5 -344 -12 -771 -15 -950 -22 -1301 -55 -4119
-90 -7770 -39 -4073 -54 -5438 -75 -7115 -35 -2732 -84 -5610 -100 -5920 -63
-1145 -426 -2260 -941 -2891 -40 -49 -175 -202 -299 -339 -3355 -3728 -6272
-7918 -8752 -12575 -596 -1118 -953 -1833 -1777 -3560 -246 -514 -732 -1532
-1081 -2261 l-635 -1327 -119 112 c-371 347 -839 769 -1506 1356 -1316 1159
-1688 1499 -2253 2060 -669 662 -927 953 -1618 1825 -2261 2850 -4319 5484
-9074 11615 -4944 6375 -6718 8642 -9679 12370 -515 648 -861 1129 -1173 1630
-725 1167 -1161 2303 -1327 3461 -56 391 -78 703 -78 1124 0 497 23 787 113
1425 27 195 59 434 69 530 97 879 -5 1435 -325 1769 -129 135 -264 219 -450
281 -148 49 -273 70 -460 77 -144 5 -180 3 -230 -11 -262 -77 -535 -345 -921
-906 -55 -80 -181 -269 -279 -420 -418 -641 -650 -967 -761 -1070 -88 -81
-332 -253 -347 -244 -25 16 -1024 766 -1362 1024 -425 324 -519 393 -750 547
-843 561 -1612 864 -2365 933 -147 13 -472 13 -620 0 -620 -56 -1278 -303
-1805 -678 -518 -369 -876 -867 -1060 -1477 -168 -554 -214 -1187 -159 -2155
57 -1008 85 -1227 229 -1815 168 -686 1964 -7269 2741 -10049 212 -755 239
-845 323 -1056 71 -177 583 -1200 601 -1200 23 0 851 188 858 194 5 5 -1150
13262 -1165 13375 l-6 44 544 -518 c620 -591 1299 -1266 1538 -1530 865 -953
1352 -1772 1581 -2659 167 -645 195 -1330 84 -2070 -8 -56 -46 -274 -84 -486
-260 -1446 -432 -2769 -594 -4585 -78 -874 -146 -1784 -266 -3570 -33 -495
-112 -1647 -175 -2560 -207 -3000 -377 -5511 -620 -9145 -251 -3752 -373
-5599 -1015 -15370 -492 -7487 -494 -7512 -615 -9055 -215 -2738 -274 -3813
-278 -5020 l-2 -480 27 -97 c82 -292 252 -553 708 -1088 272 -319 448 -538
521 -649 l15 -24 125 104 c68 58 293 231 499 385 447 334 565 430 728 589 199
193 339 379 426 568 211 454 360 1042 455 1797 43 340 56 487 326 3645 587
6887 809 9497 1805 21285 688 8136 1236 14597 1280 15100 73 817 155 1605 399
3855 66 605 136 1262 157 1460 21 198 40 363 43 367 8 8 1142 -1607 2211
-3152 2991 -4319 4554 -6515 6393 -8980 4298 -5760 8239 -10217 12302 -13915
1131 -1029 2313 -2035 3415 -2905 347 -274 346 -273 419 -370 208 -278 327
-740 362 -1406 22 -434 -1 -746 -131 -1784 -119 -947 -226 -1684 -531 -3640
-413 -2647 -562 -3734 -688 -4990 -141 -1403 -187 -2337 -178 -3600 5 -721 10
-863 42 -1410 213 -3536 1173 -6736 2833 -9435 1716 -2792 4181 -5077 7337
-6802 1618 -885 3393 -1611 5518 -2257 4835 -1472 9663 -1885 14512 -1240
4975 660 9993 2441 15050 5339 1305 748 2937 1770 3580 2244 881 648 1715
1432 2699 2536 397 446 916 1063 1586 1890 1148 1414 1373 1686 1939 2340 131
151 214 277 296 447 111 232 175 430 325 1002 45 170 104 384 132 475 28 91
53 176 55 187 4 19 -32 51 -224 205 -125 100 -233 186 -240 192 -8 6 -45 -9
-115 -46 -57 -30 -328 -171 -603 -312 -862 -444 -1030 -539 -1670 -947 -658
-419 -1063 -684 -2615 -1713 -2412 -1598 -3267 -2144 -4450 -2842 -1630 -962
-3615 -1971 -5461 -2779 -2346 -1026 -4712 -1831 -6944 -2363 -2183 -520
-4168 -800 -6420 -903 -380 -18 -2029 -18 -2410 0 -1866 86 -3452 285 -5195
653 -4973 1051 -8581 2973 -11051 5889 -587 694 -1147 1506 -1613 2345 -258
463 -582 1139 -813 1699 -1248 3017 -1744 6317 -1497 9956 139 2058 506 4235
1126 6680 167 658 148 592 172 586 12 -2 2575 -579 5696 -1282 3121 -702 5679
-1280 5684 -1285 14 -13 38 -234 201 -1884 151 -1529 314 -2713 491 -3580 161
-784 438 -1474 797 -1987 124 -176 223 -295 387 -459 280 -282 568 -482 893
-619 357 -151 635 -209 1041 -217 271 -6 411 3 641 43 998 170 1582 630 1874
1477 175 507 258 1088 292 2047 13 359 7 1603 -11 2210 -21 748 -50 1773 -61
2200 -24 917 -15 2220 21 2920 82 1586 306 2896 689 4020 73 215 117 332 351
925 2378 6037 3636 11161 3965 16155 95 1442 128 3410 105 6310 -12 1519 -28
4482 -24 4488 1 2 64 -36 140 -84 345 -218 643 -390 1309 -754 834 -456 1120
-630 1420 -862 154 -119 413 -376 504 -500 75 -101 623 -1009 954 -1580 1130
-1945 1783 -3398 2151 -4784 244 -919 517 -2633 646 -4049 148 -1632 170
-3313 64 -4960 -206 -3240 -901 -6526 -2074 -9815 -227 -638 -249 -808 -271
-2090 -5 -344 -11 -638 -12 -655 l-2 -29 405 -73 c223 -40 413 -73 423 -73 11
0 30 20 50 52 43 70 270 425 504 788 404 627 528 855 777 1424 1660 3787 2608
7731 2821 11731 36 677 40 865 40 1770 0 904 -5 1125 -40 1795 -87 1640 -298
3326 -626 4988 -441 2236 -1063 4033 -1907 5507 -1454 2541 -3597 4153 -6512
4900 -127 32 -241 68 -284 88 -248 119 -520 436 -720 837 -114 230 -166 390
-215 671 -124 706 -229 1450 -416 2939 -287 2293 -339 2628 -710 4525 -958
4904 -2021 10115 -3109 15245 -473 2229 -465 2196 -581 2545 -374 1131 -986
1780 -1778 1885 -92 12 -342 11 -442 -1z m1684 -12896 c7 -32 756 -3566 1665
-7853 1110 -5233 1649 -7797 1642 -7801 -21 -12 -3068 -901 -3072 -896 -6 6
-915 16465 -911 16487 2 11 75 27 307 66 168 29 317 52 331 53 24 1 27 -4 38
-56z m3358 -19302 c122 -79 133 -89 133 -116 0 -16 9 -147 20 -290 214 -2836
270 -5374 170 -7600 -193 -4268 -981 -7979 -2405 -11340 -200 -470 -244 -566
-245 -525 0 78 -55 1703 -140 4190 -145 4223 -190 5658 -235 7580 -39 1651
-52 2567 -67 4387 -9 1203 -9 1606 0 1681 21 182 87 344 220 543 196 291 420
513 1242 1229 168 146 394 353 504 461 l200 196 236 -155 c129 -85 295 -193
367 -241z m-9180 -14366 c-5 -6686 -9 -7928 -37 -10505 -21 -1961 -30 -2430
-46 -2489 -43 -151 -157 -313 -369 -527 -176 -178 -309 -287 -489 -405 -211
-139 -384 -216 -506 -226 -61 -5 -81 0 -335 82 -2065 664 -4214 1472 -6825
2566 l-415 174 -66 65 c-135 134 -243 381 -315 725 -35 164 -44 442 -20 562
19 94 206 596 541 1453 1124 2874 2319 5463 3633 7870 1235 2262 2568 4355
4075 6400 340 462 840 1116 1121 1469 l51 63 3 -43 c2 -24 1 -3279 -1 -7234z"/>
</g>
</svg>
